HIERARCHY
ROOT Elbow
{
	OFFSET	0.00	0.00	0.00
	CHANNELS 6 Xposition Yposition Zposition Zrotation Xrotation Yrotation
	JOINT L_Wrist
	{
		OFFSET	 0.208349	 0.000000	 0.000000
		CHANNELS 3 Zrotation Xrotation Yrotation
		JOINT L_index_Proximal
		{
			OFFSET	 0.093499	 0.010637	-0.002084
			CHANNELS 3 Zrotation Xrotation Yrotation
			JOINT L_index_b
			{
				OFFSET	 0.033153	 0.000000	 0.000000
				CHANNELS 3 Zrotation Xrotation Yrotation
				JOINT L_index_c
				{
					OFFSET	 0.018651	 0.000000	 0.000000
					CHANNELS 3 Zrotation Xrotation Yrotation
					End Site
					{
						OFFSET	 0.018651	 0.000000	 0.000000
					}
				}
			}
		}
		JOINT L_middle_Proximal
		{
			OFFSET	 0.090632	-0.006115	-0.003750
			CHANNELS 3 Zrotation Xrotation Yrotation
			JOINT L_middle_b
			{
				OFFSET	 0.037194	 0.000000	 0.000000
				CHANNELS 3 Zrotation Xrotation Yrotation
				JOINT L_middle_c
				{
					OFFSET	 0.021943	 0.000000	 0.000000
					CHANNELS 3 Zrotation Xrotation Yrotation
					End Site
					{
						OFFSET	 0.021943	 0.000000	 0.000000
					}
				}
			}
		}
		JOINT L_pinky_Proximal
		{
			OFFSET	 0.074015	-0.035449	-0.000417
			CHANNELS 3 Zrotation Xrotation Yrotation
			JOINT L_pinky_b
			{
				OFFSET	 0.027285	 0.000000	 0.000000
				CHANNELS 3 Zrotation Xrotation Yrotation
				JOINT L_pinky_c
				{
					OFFSET	 0.015093	 0.000000	 0.000000
					CHANNELS 3 Zrotation Xrotation Yrotation
					End Site
					{
						OFFSET	 0.015093	 0.000000	 0.000000
					}
				}
			}
		}
		JOINT L_ring_Proximal
		{
			OFFSET	 0.082801	-0.021859	-0.003750
			CHANNELS 3 Zrotation Xrotation Yrotation
			JOINT L_ring_b
			{
				OFFSET	 0.034478	 0.000000	 0.000000
				CHANNELS 3 Zrotation Xrotation Yrotation
				JOINT L_ring_c
				{
					OFFSET	 0.021377	 0.000000	 0.000000
					CHANNELS 3 Zrotation Xrotation Yrotation
					End Site
					{
						OFFSET	 0.021377	 0.000000	 0.000000
					}
				}
			}
		}
		JOINT L_thumb_Proximal
		{
			OFFSET	 0.030306	 0.018528	 0.004584
			CHANNELS 3 Zrotation Xrotation Yrotation
			JOINT L_thumb_a
			{
				OFFSET	 0.038520	 0.000000	 0.000000
				CHANNELS 3 Zrotation Xrotation Yrotation
				JOINT L_thumb_b
				{
					OFFSET	 0.026310	 0.000000	 0.000000
					CHANNELS 3 Zrotation Xrotation Yrotation
					End Site
					{
						OFFSET	 0.026310	 0.000000	 0.000000
					}
				}
			}
		}
	}
}
MOTION
Frames:    19
Frame Time: 0.01666667
 0.233193	-0.136163	-0.304394	 80.470050	 35.960540	 54.610080	-1.518905	-0.570325	-3.236290	 0.567359	-0.139618	-9.091340	-0.847839	 0.110549	-14.857650	-0.820991	 0.069282	-9.647130	-5.825060	-9.019542	-6.010406	 0.790225	-0.110019	-15.851820	-2.084686	 0.170113	-9.329292	-25.829730	-19.858100	-5.995059	-0.315875	 0.042514	-15.332670	 1.439502	-0.116494	-9.253195	-16.158380	-11.833910	-8.604922	 0.101416	-0.014239	-15.982940	 0.190051	-0.015745	-9.470931	 55.896050	 61.387170	-12.094810	-1.745000	-0.091834	 6.023434	 0.264184	 0.002205	 0.960519
 0.233115	-0.136113	-0.304415	 80.481300	 35.954080	 54.603480	-1.512014	-0.569577	-3.232036	 0.565616	-0.139508	-9.093819	-0.848870	 0.110652	-14.853280	-0.816891	 0.069005	-9.655944	-5.820152	-9.019690	-5.993022	 0.788729	-0.109847	-15.856930	-2.081358	 0.170153	-9.346027	-25.801610	-19.859930	-5.911080	-0.316386	 0.042564	-15.324730	 1.431311	-0.116309	-9.290394	-16.152450	-11.834250	-8.578758	 0.102407	-0.014376	-15.984210	 0.188942	-0.015744	-9.526222	 55.934900	 61.376980	-12.138380	-1.727218	-0.090551	 6.000512	 0.268514	 0.002187	 0.926477
 0.233040	-0.136051	-0.304414	 80.487050	 35.950770	 54.600090	-1.500068	-0.571368	-3.242212	 0.545865	-0.136346	-9.084578	-0.850680	 0.110718	-14.831110	-0.810621	 0.068474	-9.656932	-5.824053	-9.017850	-5.951778	 0.781472	-0.108517	-15.812340	-2.089504	 0.170516	-9.329704	-25.786950	-19.860640	-5.841708	-0.315606	 0.042360	-15.290760	 1.431282	-0.116167	-9.279607	-16.167860	-11.831330	-8.550056	 0.093445	-0.013116	-15.974510	 0.179105	-0.014904	-9.510446	 55.906170	 61.383670	-12.110500	-1.724895	-0.090166	 5.984890	 0.273767	 0.002167	 0.906831
 0.232924	-0.135974	-0.304378	 80.484780	 35.952090	 54.601420	-1.487055	-0.568185	-3.224166	 0.542896	-0.136160	-9.071984	-0.847540	 0.110397	-14.841930	-0.804779	 0.068031	-9.664846	-5.841125	-9.015603	-5.940821	 0.781758	-0.108667	-15.827220	-2.087513	 0.170697	-9.348489	-25.799900	-19.859560	-5.857144	-0.326767	 0.043998	-15.337520	 1.418265	-0.115688	-9.326675	-16.191610	-11.827980	-8.549973	 0.088562	-0.012435	-15.990190	 0.176732	-0.014693	-9.507567	 55.933830	 61.378600	-12.126230	-1.727430	-0.090006	 5.964163	 0.276406	 0.002127	 0.886710
 0.232870	-0.135967	-0.304363	 80.463870	 35.964100	 54.613700	-1.483905	-0.566024	-3.211830	 0.568956	-0.139623	-9.021435	-0.819857	 0.106806	-14.844520	-0.797387	 0.067354	-9.654280	-5.852226	-9.014813	-5.962355	 0.784958	-0.109372	-15.864310	-2.079783	 0.170763	-9.386738	-25.841020	-19.856390	-5.932758	-0.350917	 0.047575	-15.443070	 1.399975	-0.115299	-9.415572	-16.227450	-11.823600	-8.593150	 0.072732	-0.010244	-16.024840	 0.181214	-0.015137	-9.550263	 56.036770	 61.364120	-12.176650	-1.752183	-0.089511	 5.848426	 0.274145	 0.001675	 0.701077
 0.232863	-0.135985	-0.304382	 80.450420	 35.971840	 54.621610	-1.488829	-0.563563	-3.197855	 0.589490	-0.142773	-9.009021	-0.811704	 0.105901	-14.866450	-0.798458	 0.067485	-9.663244	-5.853230	-9.015727	-5.991890	 0.791286	-0.110477	-15.895620	-2.079295	 0.171262	-9.415568	-25.878330	-19.853350	-5.994837	-0.359978	 0.048983	-15.496880	 1.401122	-0.115646	-9.436099	-16.237790	-11.822680	-8.619151	 0.072220	-0.010172	-16.040170	 0.183254	-0.015327	-9.560306	 56.099170	 61.354550	-12.209120	-1.765077	-0.089356	 5.795292	 0.265564	 0.001592	 0.682623
 0.232884	-0.136045	-0.304419	 80.432640	 35.982060	 54.632050	-1.488856	-0.567439	-3.219872	 0.591031	-0.142125	-8.932466	-0.826596	 0.107338	-14.797500	-0.808450	 0.068047	-9.623036	-5.839799	-9.016740	-5.976882	 0.786655	-0.109799	-15.891610	-2.090086	 0.171894	-9.402071	-25.933900	-19.849030	-6.120135	-0.400657	 0.055112	-15.663600	 1.405199	-0.116551	-9.482641	-16.226930	-11.823650	-8.595144	 0.073225	-0.010320	-16.034960	 0.182141	-0.015228	-9.559020	 56.111000	 61.352240	-12.221230	-1.761160	-0.088711	 5.766744	 0.258824	 0.001607	 0.713873
 0.232906	-0.136092	-0.304431	 80.425860	 35.985940	 54.636040	-1.502719	-0.571763	-3.244483	 0.600330	-0.142725	-8.847287	-0.847033	 0.109545	-14.737580	-0.812202	 0.068239	-9.604808	-5.801615	-9.020277	-5.941546	 0.783186	-0.109324	-15.892710	-2.097833	 0.172347	-9.392294	-25.960550	-19.847430	-6.238605	-0.428330	 0.059340	-15.775660	 1.404269	-0.116312	-9.469303	-16.200930	-11.827250	-8.589427	 0.067595	-0.009526	-16.041410	 0.180768	-0.015097	-9.550455	 56.078040	 61.352200	-12.232510	-1.752590	-0.088979	 5.811895	 0.249871	 0.001715	 0.790012
 0.232910	-0.136141	-0.304426	 80.464420	 35.962890	 54.612950	-1.523701	-0.577306	-3.275913	 0.601184	-0.142511	-8.815490	-0.848913	 0.109766	-14.736420	-0.812639	 0.068328	-9.611100	-5.779384	-9.021919	-5.908443	 0.776670	-0.108377	-15.889120	-2.100840	 0.172327	-9.377840	-25.937710	-19.849080	-6.178176	-0.418354	 0.057553	-15.665040	 1.424923	-0.116574	-9.353773	-16.189040	-11.827730	-8.535467	 0.054949	-0.007732	-16.022870	 0.171838	-0.014312	-9.519540	 56.073110	 61.348960	-12.252780	-1.731634	-0.088422	 5.845826	 0.254651	 0.001803	 0.819149
 0.232892	-0.136175	-0.304415	 80.486710	 35.949060	 54.599370	-1.538464	-0.581298	-3.298656	 0.614687	-0.144053	-8.779857	-0.847708	 0.109698	-14.746370	-0.813857	 0.068508	-9.623559	-5.764915	-9.022209	-5.867455	 0.770067	-0.107325	-15.869000	-2.102021	 0.172104	-9.360198	-25.939930	-19.848620	-6.158438	-0.414379	 0.056733	-15.590440	 1.419062	-0.116287	-9.368937	-16.184890	-11.827960	-8.522504	 0.049723	-0.007006	-16.041570	 0.165872	-0.013826	-9.536461	 56.071100	 61.352840	-12.234090	-1.728818	-0.088370	 5.851454	 0.263813	 0.001914	 0.830613
 0.232860	-0.136196	-0.304402	 80.501820	 35.940370	 54.590510	-1.547512	-0.583852	-3.313164	 0.617787	-0.144751	-8.770720	-0.846987	 0.109765	-14.768100	-0.813581	 0.068655	-9.646450	-5.763480	-9.021940	-5.846938	 0.772373	-0.107658	-15.869900	-2.103587	 0.172271	-9.362363	-25.916640	-19.850470	-6.102722	-0.387835	 0.052719	-15.480810	 1.428912	-0.116574	-9.327540	-16.181500	-11.828490	-8.516237	 0.049256	-0.006941	-16.044080	 0.168248	-0.014050	-9.542418	 56.103290	 61.343770	-12.271380	-1.728971	-0.088527	 5.862700	 0.261951	 0.001923	 0.846705
 0.232826	-0.136202	-0.304397	 80.514950	 35.932810	 54.582810	-1.552227	-0.587862	-3.335904	 0.614448	-0.143661	-8.738562	-0.845790	 0.109473	-14.750020	-0.815484	 0.068685	-9.629113	-5.760351	-9.021027	-5.815115	 0.766134	-0.106649	-15.850750	-2.109612	 0.172307	-9.337670	-25.879470	-19.853080	-6.003886	-0.366749	 0.049498	-15.371730	 1.437558	-0.116642	-9.276605	-16.176340	-11.828590	-8.494091	 0.048003	-0.006766	-16.036000	 0.163283	-0.013626	-9.539852	 56.139860	 61.335570	-12.308550	-1.728377	-0.088374	 5.854548	 0.262187	 0.001928	 0.838802
 0.232822	-0.136215	-0.304416	 80.533070	 35.922370	 54.572170	-1.558938	-0.591185	-3.354793	 0.615632	-0.144044	-8.719329	-0.841014	 0.108988	-14.767620	-0.817298	 0.068851	-9.629725	-5.740269	-9.022007	-5.760523	 0.753757	-0.104574	-15.796250	-2.121269	 0.172883	-9.317565	-25.843280	-19.856650	-5.980467	-0.365558	 0.049345	-15.374510	 1.423299	-0.115889	-9.309708	-16.144280	-11.832690	-8.456020	 0.053923	-0.007581	-16.009690	 0.157919	-0.013154	-9.520785	 56.195610	 61.316570	-12.393390	-1.723229	-0.088651	 5.889744	 0.252238	 0.001921	 0.877491
 0.232813	-0.136238	-0.304430	 80.532030	 35.922740	 54.572880	-1.557576	-0.594741	-3.374993	 0.606408	-0.142527	-8.704350	-0.839286	 0.108852	-14.779920	-0.819595	 0.069031	-9.628185	-5.725740	-9.021947	-5.705007	 0.746609	-0.103422	-15.773190	-2.128003	 0.173531	-9.322794	-25.836560	-19.858330	-6.064202	-0.382930	 0.052072	-15.488480	 1.395741	-0.114515	-9.380662	-16.103910	-11.837830	-8.421648	 0.057501	-0.008078	-15.984920	 0.155664	-0.012935	-9.503856	 56.237510	 61.301140	-12.465390	-1.711517	-0.088496	 5.919588	 0.237092	 0.001913	 0.926692
 0.232813	-0.136263	-0.304465	 80.540020	 35.917340	 54.568500	-1.554074	-0.596687	-3.386075	 0.592254	-0.140271	-8.692398	-0.840278	 0.108956	-14.776480	-0.819362	 0.068974	-9.622589	-5.722075	-9.021583	-5.680976	 0.742234	-0.102813	-15.772810	-2.128639	 0.173626	-9.325286	-25.857030	-19.857050	-6.132852	-0.392157	 0.053492	-15.536330	 1.394588	-0.114504	-9.387541	-16.092140	-11.839310	-8.410435	 0.053337	-0.007484	-15.977790	 0.154973	-0.012881	-9.504840	 56.255990	 61.292120	-12.509960	-1.709880	-0.088212	 5.906732	 0.229074	 0.001796	 0.903180
 0.232825	-0.136290	-0.304531	 80.562190	 35.904560	 54.555500	-1.555577	-0.600218	-3.406162	 0.586102	-0.138624	-8.685717	-0.833840	 0.108130	-14.777490	-0.817436	 0.068753	-9.615836	-5.710672	-9.020753	-5.632955	 0.736547	-0.101966	-15.763180	-2.126338	 0.173546	-9.330872	-25.853650	-19.857280	-6.160962	-0.388883	 0.052982	-15.517030	 1.399990	-0.114748	-9.370726	-16.066620	-11.841720	-8.377066	 0.052795	-0.007411	-15.980780	 0.157808	-0.013134	-9.513237	 56.284360	 61.281860	-12.562240	-1.717701	-0.088157	 5.874858	 0.224901	 0.001676	 0.858341
 0.232833	-0.136260	-0.304626	 80.564220	 35.902080	 54.554840	-1.564053	-0.598435	-3.396003	 0.593029	-0.140281	-8.667099	-0.816487	 0.105876	-14.776950	-0.816292	 0.068547	-9.600227	-5.710962	-9.021474	-5.634305	 0.725878	-0.100583	-15.778260	-2.128730	 0.174067	-9.348438	-25.819800	-19.861570	-6.181577	-0.374982	 0.051101	-15.517850	 1.400377	-0.114720	-9.366248	-16.053670	-11.845490	-8.429029	 0.048617	-0.006853	-16.058610	 0.158426	-0.013244	-9.555983	 56.289260	 61.279140	-12.570220	-1.730507	-0.088784	 5.875345	 0.224492	 0.001722	 0.878645
 0.232845	-0.136211	-0.304705	 80.553050	 35.907080	 54.561950	-1.574623	-0.597014	-3.387957	 0.610536	-0.142851	-8.632311	-0.797677	 0.103511	-14.788090	-0.814984	 0.068468	-9.603164	-5.708822	-9.021532	-5.622348	 0.718819	-0.099675	-15.789960	-2.125002	 0.174162	-9.369766	-25.795930	-19.864810	-6.232785	-0.376297	 0.051354	-15.542520	 1.396857	-0.114718	-9.389298	-16.026260	-11.849710	-8.430364	 0.047237	-0.006672	-16.066780	 0.160935	-0.013458	-9.561936	 56.359850	 61.261900	-12.640720	-1.725749	-0.089008	 5.905466	 0.219845	 0.001759	 0.917104
 0.232920	-0.136179	-0.304796	 80.524950	 35.923370	 54.578400	-1.574511	-0.598798	-3.398048	 0.622205	-0.143425	-8.514310	-0.789738	 0.101724	-14.678840	-0.812677	 0.068006	-9.567254	-5.706259	-9.020335	-5.582394	 0.719488	-0.099558	-15.757090	-2.114863	 0.173219	-9.363646	-25.781080	-19.866260	-6.229997	-0.375489	 0.051135	-15.507840	 1.406861	-0.115155	-9.358170	-16.004950	-11.852480	-8.419492	 0.050434	-0.007122	-16.071790	 0.159862	-0.013375	-9.563445	 56.397740	 61.251660	-12.686630	-1.728247	-0.089172	 5.907077	 0.213625	 0.001753	 0.943007
